<svg xmlns="http://www.w3.org/2000/svg" version="1.1" xmlns:xlink="http://www.w3.org/1999/xlink" xmlns:svgjs="http://svgjs.dev/svgjs" width="1500" height="1500" viewBox="0 0 1500 1500"><rect width="1500" height="1500" fill="#d33313"></rect><g transform="matrix(0.34818941504178275,0,0,0.34818941504178275,488.96934315664583,250.40560591894643)"><svg viewBox="0 0 129 247" data-background-color="#d33313" preserveAspectRatio="xMidYMid meet" height="2872" width="1500" xmlns="http://www.w3.org/2000/svg" xmlns:xlink="http://www.w3.org/1999/xlink"><g id="tight-bounds" transform="matrix(1,0,0,1,-0.027516004946278372,-0.09997365579206985)"><svg viewBox="0 0 129.0549719386332 247.2" height="247.2" width="129.0549719386332"><g><svg viewBox="0 0 129.0549719386332 247.2" height="247.2" width="129.0549719386332"><g><svg viewBox="0 0 129.0549719386332 247.2" height="247.2" width="129.0549719386332"><g id="textblocktransform"><svg viewBox="0 0 129.0549719386332 247.2" height="247.2" width="129.0549719386332" id="textblock"><g><svg viewBox="0 0 129.0549719386332 247.2" height="247.2" width="129.0549719386332"><path d="M128.753 53.02C128.146 27.36 126.417 20.227 126.417 20.227 121.108-6.202 114.483-0.506 108.531 3.292 98.023 3.446 87.557 9.091 77.073 12.119 55.067 12.581 32.874 4.986 10.977 23.717 8.921 29.464-2.134 24.846 0.366 56.304 1.021 69.39 3.412 83.913 3.339 95.922 3.666 98.026 4.121 93.202 4.316 96.23 4.995 104.39 6.105 100.541 7.015 105.365 5.747 118.246 6.657 128.971 7.525 140.21 5.996 143.135 4.036 141.749 3.157 151.449 3.066 158.479 2.574 157.145 2.034 156.837 1.64 156.632 0.845 157.402 0.979 159.608 1.434 167.152-0.52 171.514 0.706 178.904-0.138 186.91 1.288 193.838 1.094 202.511 1.07 204.255 1.203 205.744 1.415 206.154 2.356 208.361 0.985 212.672 1.13 217.342 10.777 249.262 21.243 227.195 31.126 241.872 33.693 231.608 31.763 245.516 32.789 243.36 33.59 240.846 34.172 251.263 35.076 245.362 35.216 243.668 35.003 239.665 35.501 240.435 35.762 240.846 35.992 240.743 36.029 238.382 36.083 234.841 35.604 237.048 35.476 235.201 36.854 225.861 36.514 248.081 37.806 247.158 37.746 244.438 37.369 240.538 38.14 241.051 38.904 237.151 38.929 233.918 39.608 242.693 39.632 244.592 39.754 245.926 39.948 246.85 42.071 237.305 44.183 250.237 46.409 245.926 47.775 241.205 49.085 248.492 50.468 246.696 50.954 245.259 51.445 242.693 51.912 247.004 57.634 247.928 63.731 244.079 69.155 247.158 83.65 241.41 99.139 249.518 114.422 241.923 118.026 238.998 121.77 234.841 125.282 231.506 125.282 231.506 128.128 222.371 128.128 181.316S128.735 145.393 128.826 112.703C128.917 80.013 129.341 78.679 128.735 53.02Z" opacity="1" fill="#a1daaf" data-fill-palette-color="tertiary"></path><g transform="matrix(1,0,0,1,55.76832,26.230666666666668)"><svg width="17.518331938633196" viewBox="4 -35.01 3.1500000000000004 35.01" height="194.73866666666666" data-palette-color="#d33313"><path d="M7.15 0L4 0 4-35.01 7.15-35.01 7.15 0Z" opacity="1" transform="matrix(1,0,0,1,0,0)" fill="#d33313" class="wordmark-text-0" data-fill-palette-color="quaternary" id="text-0"></path></svg></g></svg></g></svg></g></svg></g><g></g></svg></g><defs></defs></svg><rect width="129.0549719386332" height="247.2" fill="none" stroke="none" visibility="hidden"></rect></g></svg></g></svg>